<svg id="Warstwa_1" data-name="Warstwa 1" xmlns="http://www.w3.org/2000/svg" viewBox="0 0 413.45 395.33"><defs><style>.cls-1{fill:#1c4467;}.cls-2{fill:#10b6c7;}.cls-3{fill:#1b4365;}</style></defs><title>logo</title><path class="cls-1" d="M266.68,339.4c-37.5,26-76,50.42-114,75.6-4.11,2.73-7.2,3.06-11.57.37Q84.49,380.56,27.64,346.21c-3.62-2.19-4.75-4.86-4.74-9q.23-65.48.07-131c0-4.48,1.39-7.23,5.22-9.77q56.21-37.26,113.6-72.68c3.75-2.31,6.46-2,10,.18,13,8.1,26.13,16,39.21,23.91,3.25,10.52,1.16,21.25,1.16,31.9-13.43-8-27-15.81-40.23-24.05-4.29-2.66-7.43-2.53-11.66.21-28.18,18.26-56.53,36.26-84.84,54.32-2.54,1.62-5.24,3-5.4,6.57-4.8-.88-5.65,2-5.64,5.83,0,8.32,0,16.64,0,25,0,8.65-.81,17.44.44,25.92,1.87,12.61,2.41,25-.14,37.51-.58,2.88-.27,6-.17,8.95.12,3.57,2.46,4.31,5.5,3.93.41,5.32,5.09,6.64,8.59,8.82,26.82,16.72,53.88,33.07,80.5,50.09,5.88,3.75,9.69,3.05,15.07-.5q40.36-26.72,81.28-52.6c5.54-3.5,7.32-7.2,7.3-13.6-.24-62.92-.1-125.85-.13-188.78,0-19-.24-37.94-.37-56.91,1-10.58.42-21.16.18-31.74a112,112,0,0,1,23.24-15.2c1.1,4.6.7,9.29.7,13.94q0,144,0,287.93C266.39,330.07,266.58,334.73,266.68,339.4Z" transform="translate(-22.9 -21.9)"/><path class="cls-2" d="M242.42,38.74c.24,10.58.86,21.16-.18,31.74-4.64,3.21-9.05,6.84-14,9.54-6.33,3.46-8.4,8.24-8.29,15.39.39,23.31.13,46.63.1,69.94,0,45.63-.21,91.26,0,136.88,0,7.17-2.43,11.61-8.45,15.43-19.69,12.46-39.09,25.37-58.51,38.24-4,2.66-7.53,3.38-11.92.68q-31.87-19.65-64-38.94c-3.51-2.11-4.89-4.87-4.86-9q.27-38,.1-75.93c0-4.15,1.54-6.67,4.92-9,20.67-14,42.16-26.76,63.18-40.22,4.26-2.73,7.7-2.42,11.87.18C162.57,190,173,196,183.29,202.09c2.49,1.47,4.65,3.81,8.62,3.33a162.22,162.22,0,0,0,.22-25.61c0-10.65,2.09-21.38-1.16-31.9,2.17-3.34,1.41-7.1,1.43-10.7.11-19.62.3-39.24,0-58.86-.08-5.9,1.36-10,6.73-13.1C213.85,56.84,227.2,46.25,242.42,38.74Zm-49.77,231h-.09c0-8-.09-16,.05-23.94.06-3.64-.86-6.45-4.27-8.25-12.66-6.68-24.53-14.66-36.5-22.46-3.37-2.2-6.31-2.59-10-.18-12.27,8-24.74,15.6-37.23,23.2a8.44,8.44,0,0,0-4.51,8.11c.14,16,.19,31.93,0,47.89,0,4.15,1.44,6.73,5,8.84q17.19,10.11,34.07,20.73c4.8,3,8.75,3.24,13.64-.13,11.21-7.74,22.71-15.09,34.31-22.22,4.27-2.62,5.75-5.86,5.58-10.64C192.46,283.76,192.65,276.77,192.65,269.78Z" transform="translate(-22.9 -21.9)"/><path class="cls-2" d="M294.28,116.43a17,17,0,0,1,8.69,4.88q60.38,56.17,120.7,112.41,4.75,4.42,9.19,9.19c4.66,5,4.72,5.33-.16,10.6q-15,16.14-30.14,32.05c-32.95,34.42-66,68.74-97.85,104.2-6.07,6.77-12.4,10-21.62,9.3-11.27-.84-22.64-.45-34-.38-4.51,0-6.3-1.47-6.66-6.34-.56-7.51,1.52-12.76,8.44-16.31,5-2.58,9.52-6.14,14.39-9,1.78-1.05,3.37-2.39,5.94.17,5.14,5.11,12,4.77,17.13-.4,8.43-8.54,16.64-17.29,24.84-26q39.29-42,78.5-84c1.14-1.22,2.27-2.45,3.49-3.59,3.17-3,2.65-5.56-.35-8.4-7.75-7.32-15.24-14.92-23-22.19-23.64-22-47.29-44.07-71.17-65.85-4.58-4.17-6.83-8.43-6.46-14.71C294.65,133.81,294.28,125.57,294.28,116.43Z" transform="translate(-22.9 -21.9)"/><path class="cls-3" d="M294.52,325.69c0-13.15.12-24-.06-34.87-.06-3.83,2.21-6.07,4.48-8.48l29-30.91c-4.41-5.79-9.72-10.21-14.8-14.87-6.34-5.83-15.18-10.37-18.05-18.12-2.72-7.33-.77-16.4-.86-24.71,0-2.87,0-5.74,0-8.08,2.59-1.25,3.47,0,4.36.86q30.87,29.1,61.65,58.29c5.39,5.12,5.38,5.4.32,10.87q-30.16,32.61-60.51,65.05C299,321.92,297.64,322.91,294.52,325.69Z" transform="translate(-22.9 -21.9)"/><path class="cls-3" d="M266.68,339.4c-.1-4.67-.29-9.33-.29-14q0-144,0-287.93c0-4.65.4-9.34-.7-13.94l0,0,3.09.9c.21,9,.61,17.91.61,26.87q.09,138.14,0,276.27C269.39,331.55,271.47,336.36,266.68,339.4Z" transform="translate(-22.9 -21.9)"/><path class="cls-1" d="M268.8,24.41l-3.09-.9c.47-1.34,1.36-2,2.7-1.33A1.36,1.36,0,0,1,268.8,24.41Z" transform="translate(-22.9 -21.9)"/><path class="cls-3" d="M50,216.86c1.18,17.51.41,35,.47,52.56.06,18.18-.3,36.36-.47,54.54-3,.38-5.38-.36-5.5-3.93-.1-3-.41-6.07.17-8.95,2.55-12.53,2-24.9.14-37.51-1.25-8.48-.41-17.27-.44-25.92,0-8.32,0-16.64,0-25C44.35,218.86,45.2,216,50,216.86Z" transform="translate(-22.9 -21.9)"/></svg>
